<?xml version="1.0" encoding="utf-8"?>
<!-- Generator: Adobe Illustrator 16.0.0, SVG Export Plug-In . SVG Version: 6.00 Build 0)  -->
<!DOCTYPE svg PUBLIC "-//W3C//DTD SVG 1.1//EN" "http://www.w3.org/Graphics/SVG/1.1/DTD/svg11.dtd">
<svg version="1.1" id="Layer_1" xmlns="http://www.w3.org/2000/svg" xmlns:xlink="http://www.w3.org/1999/xlink" x="0px" y="0px"
	 width="1200px" height="800px" viewBox="0 0 1200 800" enable-background="new 0 0 1200 800" xml:space="preserve">
<g>
	<circle fill="#366988" cx="601" cy="401" r="400"/>
	<g>
		<path fill="#FFFFFF" d="M429.351,188.099v396.013l264.854,0.569V256.419l-68.511-68.32H429.351z M677.42,567.827L677.42,567.827
			l-231.23-0.5V204.939h161.854v75.982h69.377V567.827z M677.408,264.105h-52.554v-53.088l52.539,52.383v0.705H677.408z
			 M476.901,310.352h174.301v14.72H476.901V310.352z M476.901,338.736h174.301v14.689H476.901V338.736z M586.642,268.668H476.567
			v-14.712h110.075V268.668z M586.642,297.058H476.567v-14.705h110.075V297.058z M476.232,369.213h174.97v14.702h-174.97V369.213z
			 M476.232,397.587h174.97v14.697h-174.97V397.587z M476.232,424.385H587.36v14.718H476.232V424.385z M637.465,599.554h16.782
			v23.102l-264.832-0.539V226.099h27.167v16.826h-10.362v362.392l231.246,0.516V599.554z M804.166,432.953l-0.558-239.237
			l-9.721,0.027l-0.058-16.398l-28.282,0.058l0.057,16.412l-9.452,0.03v-0.015l-21.21,0.042l-9.964,0.049l8.825,135.613l8.513-0.029
			l-3.003-117.136l14.987-0.027l0.513,220.584c-4.013,0.611-7.132,3.659-7.117,7.501c0,3.845,3.119,6.89,7.174,7.516v0.285
			l31.103-0.072l16.071-0.027c0,0,0-0.015,0.027,0l2.137-0.015v-0.398c3.644-0.911,6.377-3.785,6.377-7.372
			S807.822,433.852,804.166,432.953z M763.24,432.656l-0.569-230.441l32.568-0.087l0.542,230.441L763.24,432.656z M784.421,220.127
			l0.2,80.81l-15.63,0.027l-0.198-80.81L784.421,220.127z M765.206,541.234l2.476,0.144l3.56,14.389h4.027l2.577,20.031h5.151
			l1.595-20.042l4.498-0.015l2.478-13.081l3.672,0.229l8.969-87.9l-49.338,0.158L765.206,541.234z M787.724,534.031l-15.044-0.813
			l-8.328-69.789l30.603-0.084L787.724,534.031z"/>
	</g>
</g>
</svg>
